<svg id="Layer_1" data-name="Layer 1" xmlns="http://www.w3.org/2000/svg" viewBox="0 0 324 124"><defs><style>.cls-1{fill:#29abe2;}.cls-2{fill:#29b5e2;}.cls-3{fill:#0071bc;}.cls-4{fill:#2e3192;}.cls-5{fill:#f15a24;}</style></defs><rect class="cls-1" x="5" y="35" width="26" height="71"/><rect class="cls-1" x="55" y="43" width="20" height="63"/><rect class="cls-1" x="148" y="43" width="20" height="63"/><rect class="cls-1" x="196" y="55" width="16" height="51"/><rect class="cls-1" x="201" y="55" width="16" height="51"/><rect class="cls-1" x="200" y="55" width="16" height="51"/><rect class="cls-1" x="98" width="35" height="106"/><rect class="cls-1" x="227" y="26" width="29" height="80"/><rect class="cls-2" x="296" y="32" width="26" height="74"/><rect class="cls-3" y="74" width="16" height="34"/><rect class="cls-3" x="36" y="63" width="19" height="45"/><rect class="cls-3" x="70" y="61" width="19" height="47"/><rect class="cls-3" x="185" y="62" width="19" height="45"/><rect class="cls-3" x="130" y="76" width="13" height="32"/><rect class="cls-3" x="221" y="56" width="24" height="52"/><rect class="cls-3" x="260" y="70" width="20" height="38"/><rect class="cls-3" x="291" y="61" width="16" height="47"/><rect class="cls-4" x="94" y="74" width="16" height="39"/><rect class="cls-4" x="146" y="93" width="12" height="20"/><rect class="cls-4" x="22" y="92" width="10" height="21"/><rect class="cls-4" x="48" y="102" width="8" height="11"/><rect class="cls-4" x="194" y="102" width="8" height="11"/><rect class="cls-4" x="231" y="93" width="13" height="20"/><rect class="cls-4" x="268" y="92" width="14" height="21"/><rect class="cls-4" x="311" y="92" width="13" height="21"/><rect class="cls-5" x="162" y="79" width="29" height="45"/></svg>